<svg width="155" height="150" viewBox="0 0 155 150" fill="none" xmlns="http://www.w3.org/2000/svg">
<rect x="5" width="150" height="150" rx="8" fill="#D73035"/>
<path opacity="0.4" d="M80.0654 134C115.929 134 145.003 132.306 145.003 130.216C145.003 128.127 115.929 126.433 80.0654 126.433C44.2013 126.433 15.1278 128.127 15.1278 130.216C15.1278 132.306 44.2013 134 80.0654 134Z" fill="#8A1114"/>
<path d="M61.1056 31.0825C58.4965 33.2283 55.9478 36.6878 57.4415 40.4413C58.9353 44.1949 68.4939 44.5726 70.5034 43.0284C73.1158 41.0229 70.8082 32.0919 68.7719 32.0384C68.6178 28.726 63.2859 29.2876 61.1056 31.0825Z" fill="#263238"/>
<path d="M57.4516 67.2311C57.4516 67.2311 58.4999 86.263 59.6554 96.5678C59.7726 106.244 61.9998 128.104 61.9998 128.104H64.4481C64.86 117.258 67.8843 107.13 65.8748 97.5639C70.5637 78.7793 67.3518 67.2444 67.3518 67.2444L57.4516 67.2311Z" fill="#FFB573"/>
<path d="M60.1176 67.2445C60.1176 67.2445 65.1581 88.3555 66.538 97.3467C67.9915 106.792 70.1551 125.122 70.0546 128.097H72.168C72.168 128.097 75.7181 109.553 72.4325 97.6809C75.142 70.9413 68.457 67.2646 68.457 67.2646L60.1176 67.2445Z" fill="#FFB573"/>
<path d="M48.0303 42.8279C47.8729 41.6881 45.7763 41.5911 45.7763 41.5911L44.7715 41.0864C44.5952 40.9787 44.3837 40.9435 44.1819 40.9884C43.98 41.0333 43.8035 41.1548 43.6897 41.3271L43.3548 41.8819C43.2573 42.1003 43.2411 42.3463 43.3093 42.5755C43.3775 42.8047 43.5255 43.0021 43.7266 43.132L44.0314 43.3526C44.5499 43.7225 45.1633 43.937 45.7997 43.971L46.7275 44.0211C46.9312 44.0328 47.1354 44.0079 47.3303 43.9476C47.5611 43.8751 47.758 43.722 47.8848 43.5163C48.0115 43.3106 48.0596 43.0661 48.0203 42.8279H48.0303Z" fill="#FFB573"/>
<path d="M59.0726 49.4961C58.9454 49.6264 58.8784 49.6899 58.7846 49.7735L58.52 50.0075C58.3458 50.1545 58.165 50.2916 57.9875 50.4286C57.6258 50.696 57.2574 50.9434 56.8789 51.1773C56.1194 51.6335 55.3215 52.0227 54.4943 52.3405C52.8467 52.9802 51.0975 53.3198 49.3298 53.3432H49.1757C49.095 53.3415 49.0145 53.3348 48.9346 53.3232C48.7773 53.3002 48.6233 53.2587 48.4758 53.1995C48.2274 53.0974 48.0003 52.95 47.8059 52.765C47.5542 52.5182 47.3489 52.2284 47.1997 51.9093C46.9908 51.4574 46.8346 50.983 46.7342 50.4955C46.5566 49.6564 46.4446 48.8049 46.3993 47.9485C46.3086 46.3083 46.3422 44.6636 46.4997 43.0284C46.5184 42.8457 46.6037 42.6761 46.7395 42.5521C46.8752 42.428 47.0519 42.3581 47.236 42.3557C47.42 42.3532 47.5986 42.4183 47.7376 42.5387C47.8767 42.659 47.9665 42.8262 47.9901 43.0084V43.0284C48.171 44.586 48.3786 46.167 48.66 47.6811C48.784 48.4144 48.9552 49.139 49.1724 49.8504C49.2589 50.1413 49.378 50.4217 49.5274 50.686C49.5877 50.7829 49.648 50.8297 49.6212 50.7963C49.5769 50.7484 49.5218 50.7118 49.4604 50.6893C49.4061 50.6647 49.3486 50.6478 49.2896 50.6392H49.1992C49.9192 50.5736 50.6334 50.4551 51.336 50.2849C52.0322 50.1114 52.715 49.888 53.379 49.6164C54.0402 49.3339 54.6776 48.9986 55.2847 48.6137C55.5895 48.4265 55.8842 48.2293 56.1689 48.0187C56.3095 47.9151 56.4435 47.8081 56.5775 47.7012L56.7717 47.5407L56.9191 47.4104L57.0062 47.3335C57.2982 47.0724 57.6809 46.9355 58.0727 46.952C58.4644 46.9685 58.8343 47.137 59.1033 47.4216C59.3724 47.7063 59.5194 48.0845 59.513 48.4758C59.5067 48.867 59.3474 49.2403 59.0693 49.5161L59.0726 49.4961Z" fill="#FFB573"/>
<path d="M60.7204 45.7859C58.0712 45.3447 55.2914 47.1429 53.8512 48.6069C53.1077 50.8397 55.489 53.5538 55.489 53.5538C55.489 53.5538 58.8817 51.4748 60.1042 50.0542C61.3266 48.6337 62.2477 46.0399 60.7204 45.7859Z" fill="#E0E0E0"/>
<path d="M68.926 66.9905C68.926 66.9905 72.6637 69.6377 73.367 78.4384C73.6483 81.9045 74.154 95.7323 75.2191 101.682C71.3843 104.416 59.9032 104.042 58.1047 102.444C58.6138 90.4111 54.0053 74.4508 57.3478 67.1108C62.8807 66.4323 68.926 66.9905 68.926 66.9905Z" fill="#263238"/>
<path opacity="0.2" d="M65.1346 92.2293C65.1849 87.1722 64.438 80.2132 62.1706 76.0886C62.9443 81.236 65.1346 92.2293 65.1346 92.2293Z" fill="black"/>
<path d="M55.5928 49.8637C55.5928 52.7282 53.3053 54.2323 55.8942 56.4383C56.0483 58.9117 56.2291 63.3405 56.9894 67.3748C57.7764 68.4678 63.5304 68.3776 69.5087 67.084C68.7283 63.6246 69.0163 57.9892 71.0627 50.2815C71.1717 49.8538 71.191 49.4082 71.1194 48.9726C71.0479 48.5371 70.8869 48.121 70.6467 47.7504C70.4065 47.3798 70.0922 47.0627 69.7234 46.819C69.3547 46.5753 68.9395 46.4102 68.5039 46.3341C68.0116 46.2472 67.4992 46.167 66.9566 46.1001C65.0869 45.825 63.1998 45.6843 61.3098 45.679C60.7003 45.679 60.0673 45.7191 59.4644 45.7592C58.4171 45.8238 57.4338 46.2842 56.7145 47.0467C55.9953 47.8092 55.5942 48.8165 55.5928 49.8637Z" fill="#E0E0E0"/>
<path d="M67.806 54.8371L60.7896 56.4228C60.5226 56.4832 60.3552 56.7481 60.4156 57.0146L62.6873 67.0258C62.7478 67.2922 63.0133 67.4593 63.2803 67.399L70.2967 65.8132C70.5637 65.7529 70.7311 65.488 70.6706 65.2215L68.3989 55.2103C68.3385 54.9439 68.073 54.7768 67.806 54.8371Z" fill="#8A1114"/>
<path d="M62.0031 49.3723C62.0031 49.3723 60.8678 50.7294 59.93 51.0435L59.8228 51.712C61.0086 51.5609 62.1032 50.9976 62.9141 50.121L62.0031 49.3723Z" fill="#8A1114"/>
<path d="M58.9185 48.5534C58.9185 48.5534 58.8716 50.3183 59.3606 51.1806L58.9955 51.7555C58.206 50.8588 57.7578 49.7134 57.7296 48.52L58.9185 48.5534Z" fill="#8A1114"/>
<path d="M66.7255 39.7427C66.2767 41.5209 65.7509 44.7998 66.9566 46.0933C66.9566 46.0933 62.4653 47.3167 59.5381 51.3276C58.1985 47.1128 61.3233 45.6722 61.3233 45.6722C63.3696 45.338 63.3964 43.8472 63.1151 42.4166L66.7255 39.7427Z" fill="#FFB573"/>
<path opacity="0.2" d="M65.2552 40.8357L63.1184 42.4234C63.1875 42.7535 63.2278 43.089 63.239 43.4261C64.016 43.3726 65.1212 42.6072 65.2485 41.8083C65.3072 41.487 65.3095 41.1578 65.2552 40.8357V40.8357Z" fill="black"/>
<path d="M68.8087 36.5741C67.9479 39.4553 67.6465 40.6953 65.8346 41.8284C63.1084 43.5297 59.806 41.7783 59.7859 38.6831C59.7859 35.8955 61.1826 31.664 64.2873 31.2027C67.392 30.7415 69.6828 33.6895 68.8087 36.5741Z" fill="#FFB573"/>
<path d="M66.5581 32.3659C65.7442 35.1435 66.4408 38.0481 68.102 38.3824C70.4096 37.5234 70.2958 34.9664 69.7063 33.7965C69.1169 32.6267 67.027 30.7649 66.5581 32.3659Z" fill="#263238"/>
<path d="M67.8207 37.3562C66.5379 37.7807 66.2901 38.6397 66.2901 38.6397C66.2901 38.6397 67.1709 38.018 68.0149 38.135C67.8924 37.8932 67.8261 37.6271 67.8207 37.3562Z" fill="#263238"/>
<path d="M64.6155 36.3034C64.5586 36.5407 64.3878 36.7011 64.2303 36.6644C64.0729 36.6276 63.9892 36.397 64.0461 36.1596C64.1031 35.9223 64.2739 35.7585 64.4313 35.7987C64.5887 35.8388 64.659 36.0661 64.6155 36.3034Z" fill="#263238"/>
<path d="M61.6448 35.5981C61.5879 35.8354 61.4171 35.9959 61.2596 35.9558C61.1022 35.9156 61.0185 35.6917 61.0754 35.451C61.1324 35.2104 61.3032 35.0533 61.4606 35.0934C61.618 35.1335 61.7051 35.3575 61.6448 35.5981Z" fill="#263238"/>
<path d="M61.5343 35.1235L60.9951 34.8126C60.9951 34.8126 61.186 35.334 61.5343 35.1235Z" fill="#263238"/>
<path d="M62.2075 35.9858C61.867 36.4753 61.4588 36.9141 60.9951 37.2894C61.0969 37.4072 61.2228 37.5018 61.3643 37.5669C61.5059 37.6321 61.6597 37.6662 61.8156 37.6671L62.2075 35.9858Z" fill="#ED893E"/>
<path d="M68.8255 39.4653C68.6481 39.6731 68.428 39.8404 68.18 39.9557C67.9321 40.0711 67.6622 40.1318 67.3887 40.1338C66.6887 40.1137 66.5681 39.3115 66.9533 38.6531C67.2882 38.0581 68.0786 37.3529 68.6882 37.6904C69.2977 38.028 69.3011 38.9238 68.8255 39.4653Z" fill="#FFB573"/>
<path d="M65.1748 35.2805C65.1388 35.2627 65.1111 35.2315 65.0978 35.1936C65.0441 35.0188 64.951 34.8586 64.8255 34.7254C64.7001 34.5921 64.5458 34.4893 64.3744 34.4248C64.3374 34.4146 64.3058 34.3904 64.2864 34.3573C64.267 34.3242 64.2613 34.2849 64.2706 34.2477C64.2748 34.2293 64.2828 34.212 64.294 34.1969C64.3052 34.1818 64.3194 34.1691 64.3358 34.1597C64.3521 34.1503 64.3702 34.1443 64.389 34.1422C64.4077 34.1401 64.4267 34.1419 64.4447 34.1474C64.6639 34.2235 64.862 34.35 65.0232 34.5167C65.1843 34.6833 65.304 34.8854 65.3725 35.1067C65.3792 35.1244 65.3822 35.1434 65.3813 35.1623C65.3803 35.1812 65.3754 35.1998 65.3669 35.2168C65.3584 35.2337 65.3465 35.2487 65.3319 35.2609C65.3173 35.273 65.3003 35.2819 65.282 35.2872C65.2467 35.2985 65.2085 35.2961 65.1748 35.2805V35.2805Z" fill="#263238"/>
<path d="M60.5664 34.1741C60.5283 34.1754 60.4913 34.1622 60.4625 34.1373C60.4361 34.11 60.4214 34.0734 60.4214 34.0354C60.4214 33.9974 60.4361 33.9609 60.4625 33.9335C60.6119 33.7611 60.8007 33.6274 61.0129 33.5436C61.2252 33.4598 61.4546 33.4284 61.6816 33.4521C61.7199 33.4587 61.7541 33.4798 61.7772 33.5109C61.8003 33.542 61.8104 33.5808 61.8056 33.6193C61.7998 33.6569 61.7792 33.6908 61.7485 33.7133C61.7177 33.7359 61.6792 33.7454 61.6415 33.7396C61.4618 33.7217 61.2804 33.7477 61.113 33.8152C60.9455 33.8828 60.797 33.9899 60.6802 34.1273C60.6658 34.1429 60.6481 34.1551 60.6284 34.1632C60.6088 34.1712 60.5876 34.175 60.5664 34.1741V34.1741Z" fill="#263238"/>
<path d="M64.4983 35.832L63.959 35.5178C63.959 35.5178 64.1499 36.0426 64.4983 35.832Z" fill="#263238"/>
<path d="M64.3241 59.5635L61.6448 59.0454L61.9462 62.1171C61.9462 62.1171 63.9557 62.0302 65.1011 61.1144L65.2083 60.7133C65.0844 60.0481 64.9337 59.8041 64.3241 59.5635Z" fill="#FFB573"/>
<path d="M60.0338 60.3557L60.3453 61.6559C60.3908 61.8426 60.5048 62.0055 60.6647 62.1126C60.8247 62.2196 61.019 62.263 61.2094 62.2341L61.9596 62.1171L61.6582 59.0454L60.5161 59.4599C60.3398 59.5244 60.1932 59.6512 60.1044 59.8163C60.0155 59.9814 59.9904 60.1733 60.0338 60.3557V60.3557Z" fill="#FFB573"/>
<path d="M70.3158 48.5802C71.1299 50.1362 71.8404 51.7441 72.4426 53.3934C72.744 54.2189 73.0287 55.0646 73.2564 55.9303C73.5048 56.8273 73.6729 57.7445 73.7588 58.6711C73.7789 58.9151 73.7889 59.1658 73.7923 59.4198V59.5101V59.6538C73.7842 59.7523 73.7662 59.8497 73.7387 59.9446C73.6895 60.1288 73.6127 60.3046 73.5109 60.466C73.3558 60.7062 73.1529 60.9121 72.9148 61.071C72.6236 61.2643 72.3021 61.4078 71.9636 61.4955C71.7072 61.5662 71.4465 61.6209 71.1833 61.6593C70.2704 61.7739 69.3492 61.8085 68.4302 61.7629C66.688 61.6826 64.954 61.4749 63.2423 61.1412C63.0569 61.1105 62.8899 61.0113 62.7745 60.8632C62.6592 60.715 62.6041 60.529 62.6202 60.3421C62.6362 60.1552 62.7223 59.9813 62.8612 59.8549C63.0001 59.7286 63.1816 59.6591 63.3696 59.6605V59.6605C65.0442 59.6304 66.7389 59.5869 68.3699 59.4633C69.1508 59.4093 69.9266 59.2975 70.6909 59.129C70.847 59.093 71.0003 59.0461 71.1498 58.9886C71.2238 58.9682 71.2924 58.9316 71.3507 58.8817C71.2864 58.9196 71.2333 58.9738 71.1967 59.0388C71.1521 59.1092 71.1183 59.1858 71.0962 59.2661C71.0843 59.3111 71.0754 59.3569 71.0694 59.4031C71.0676 59.4253 71.0676 59.4477 71.0694 59.4699V59.4699C71.0694 59.2995 71.0392 59.1357 71.0125 58.9485C70.7196 57.3994 70.2626 55.8857 69.6493 54.4329C69.0431 52.9254 68.3498 51.3912 67.6398 49.9439V49.9172C67.4959 49.5674 67.4892 49.1764 67.6212 48.8219C67.7531 48.4675 68.014 48.1756 68.3519 48.0045C68.6898 47.8334 69.0798 47.7956 69.4444 47.8985C69.8089 48.0015 70.1213 48.2377 70.3192 48.5602L70.3158 48.5802Z" fill="#FFB573"/>
<path d="M68.6781 46.4377C70.5972 46.792 71.4512 48.5134 72.8445 51.9494C72.4191 54.2624 69.013 55.479 69.013 55.479C69.013 55.479 67.0571 52.0196 66.6686 50.1846C66.2801 48.3496 66.7423 46.08 68.6781 46.4377Z" fill="#E0E0E0"/>
<path d="M64.6222 128.131C64.6066 128.086 64.5761 128.048 64.5359 128.023C64.4957 127.998 64.4482 127.988 64.4012 127.994L62.1304 127.96C61.8981 127.945 61.666 127.994 61.4606 128.104C60.4211 128.752 59.2534 129.168 58.0377 129.324C57.5554 129.397 57.7731 130.21 58.9119 130.223C60.7908 130.243 61.1324 130.103 62.7366 130.119C64.1065 130.136 63.4534 130.196 64.5419 130.223C64.8031 130.223 65.0174 130.059 64.984 129.889L64.6222 128.131Z" fill="#263238"/>
<path d="M72.456 128.131C72.4398 128.086 72.4092 128.049 72.3692 128.024C72.3291 127.999 72.2818 127.988 72.2349 127.994L70.3828 127.96C70.1504 127.944 69.9181 127.993 69.713 128.104C69.0432 128.568 69.1369 129.107 67.6097 129.324C67.1274 129.397 67.3652 130.21 68.5039 130.223C70.3828 130.243 70.269 130.119 71.0326 130.119C71.7962 130.119 71.3273 130.196 72.4192 130.223C72.6804 130.223 72.8914 130.059 72.8512 129.889L72.456 128.131Z" fill="#263238"/>
<path d="M60.7673 49.8871C61.7184 49.9272 63.4634 50.706 64.0227 51.5383C64.8131 50.7194 67.9011 48.8175 67.9546 46.2405C67.5767 45.8778 67.1004 45.6337 66.5848 45.5386C66.5848 45.5386 62.4653 47.5273 60.7673 49.8871Z" fill="#FAFAFA"/>
<path d="M59.2266 49.7534C59.2266 49.7534 58.9687 47.6711 61.494 45.6489C61.2395 45.4416 60.2414 45.6756 60.2414 45.6756C60.2414 45.6756 57.2908 46.9424 57.3779 50.2214C57.9096 49.8312 58.5728 49.6633 59.2266 49.7534V49.7534Z" fill="#FAFAFA"/>
<path d="M58.8515 50.6358C58.4865 50.8062 58.3425 51.9928 58.8515 52.2702C59.3606 52.5477 59.3104 51.4146 59.6051 51.0269C59.8998 50.6391 59.4912 50.3383 58.8515 50.6358Z" fill="#8A1114"/>
<path d="M59.3003 51.097C59.0391 51.4313 59.3774 52.5677 59.94 52.5644C60.5027 52.561 60.0171 51.5616 60.1276 51.0669C60.2381 50.5723 59.7458 50.5088 59.3003 51.097Z" fill="#8A1114"/>
<path d="M59.3774 51.9427C58.7511 50.9767 58.7076 56.0673 60.2247 58.0727C60.1243 56.0974 61.186 53.2964 59.3774 51.9427Z" fill="#8A1114"/>
<path d="M59.3204 51.8993C59.0424 50.9166 57.6458 55.2217 58.4195 57.3241C58.8582 55.6228 60.496 53.5237 59.3204 51.8993Z" fill="#8A1114"/>
<path d="M63.9892 38.5862C64.1351 38.5228 64.2752 38.4467 64.4078 38.3589C64.4153 38.3514 64.4213 38.3426 64.4253 38.3328C64.4294 38.3231 64.4315 38.3126 64.4315 38.3021C64.4315 38.2915 64.4294 38.281 64.4253 38.2713C64.4213 38.2615 64.4153 38.2527 64.4078 38.2452C64.3939 38.2274 64.3738 38.2155 64.3515 38.2118C64.3291 38.2081 64.3062 38.2129 64.2873 38.2252C63.9886 38.4251 63.6488 38.5555 63.2929 38.607C62.937 38.6585 62.5741 38.6297 62.2309 38.5227C62.2208 38.5182 62.2099 38.5158 62.1988 38.5156C62.1878 38.5154 62.1768 38.5174 62.1665 38.5214C62.1563 38.5255 62.1469 38.5315 62.139 38.5392C62.131 38.5468 62.1247 38.556 62.1203 38.5661C62.1128 38.5869 62.1139 38.6099 62.1233 38.63C62.1327 38.65 62.1497 38.6655 62.1706 38.6731C62.7668 38.8689 63.4145 38.8379 63.9892 38.5862V38.5862Z" fill="#263238"/>
<path d="M54.2699 40.9426H37.1588V41.4975H54.2699V40.9426Z" fill="#8A1114"/>
<path d="M53.8612 41.4974H37.5674L38.2841 41.8852H53.1445L53.8612 41.4974Z" fill="#8A1114"/>
<path opacity="0.2" d="M53.8612 41.4974H37.5674L38.2841 41.8852H53.1445L53.8612 41.4974Z" fill="black"/>
<path d="M42.6415 26.0787C42.5414 26.0778 42.4456 26.0378 42.3748 25.9671C42.304 25.8965 42.2639 25.8009 42.263 25.701V24.4342C42.2639 24.3343 42.304 24.2388 42.3748 24.1681C42.4456 24.0975 42.5414 24.0574 42.6415 24.0565V24.0565C42.7416 24.0574 42.8373 24.0975 42.9081 24.1681C42.9789 24.2388 43.019 24.3343 43.0199 24.4342V25.701C43.019 25.8009 42.9789 25.8965 42.9081 25.9671C42.8373 26.0378 42.7416 26.0778 42.6415 26.0787V26.0787Z" fill="#263238"/>
<path d="M43.251 24.3574V24.1903C43.251 24.0278 43.119 23.8961 42.9562 23.8961H42.3266C42.1638 23.8961 42.0319 24.0278 42.0319 24.1903V24.3574C42.0319 24.5198 42.1638 24.6515 42.3266 24.6515H42.9562C43.119 24.6515 43.251 24.5198 43.251 24.3574Z" fill="#263238"/>
<path d="M43.2476 28.8296V25.2164C43.2476 25.1771 43.2322 25.1394 43.2047 25.1113C43.1771 25.0831 43.1397 25.0669 43.1003 25.066H42.1826C42.1432 25.0669 42.1057 25.0831 42.0782 25.1113C42.0506 25.1394 42.0352 25.1771 42.0352 25.2164V28.8296C42.0353 29.1012 41.9778 29.3697 41.8664 29.6174C41.7549 29.8651 41.5922 30.0865 41.3888 30.2669C41.1862 30.4486 41.024 30.6707 40.9126 30.9188C40.8013 31.167 40.7433 31.4356 40.7424 31.7075V40.9761H44.5371V31.7075C44.5368 31.4355 44.4791 31.1667 44.3677 30.9184C44.2564 30.6702 44.0938 30.4482 43.8907 30.2669V30.2669C43.6883 30.0859 43.5263 29.8644 43.4155 29.6167C43.3047 29.3691 43.2475 29.1009 43.2476 28.8296V28.8296Z" fill="#8A1114"/>
<path d="M44.5371 32.8038H42.0319V38.7969H44.5371V32.8038Z" fill="#E0E0E0"/>
<path d="M48.0939 40.9426H47.6418C47.7923 40.9527 47.9434 40.9527 48.0939 40.9426Z" fill="#8A1114"/>
<path d="M50.8235 40.9426H50.368C50.5197 40.9527 50.6719 40.9527 50.8235 40.9426Z" fill="#8A1114"/>
<path opacity="0.2" d="M47.4877 33.8734V35.3942C47.4877 36.6042 48.1777 37.6103 49.0518 37.734V40.4079C49.0518 40.819 48.6499 40.936 48.3384 40.9628H50.1236C49.8121 40.936 49.4102 40.819 49.4102 40.4079V37.734C50.2843 37.6136 50.9742 36.6075 50.9742 35.3942V33.8734H47.4877Z" fill="#8A1114"/>
<path d="M68.2394 32.4428C66.8997 33.011 62.4118 33.1848 60.6534 32.8038C62.4721 30.2401 66.5581 29.4881 68.2394 32.4428Z" fill="#263238"/>
<path d="M72.4627 41.6011C72.4497 41.6009 72.437 41.5978 72.4254 41.592C72.4138 41.5862 72.4037 41.5779 72.3957 41.5677C72.3521 41.5076 71.3641 40.0569 71.344 36.173C71.344 34.5519 70.845 33.2483 70.0044 32.5899C69.7859 32.4098 69.5282 32.2833 69.2519 32.2206C68.9756 32.1579 68.6885 32.1607 68.4135 32.2289C68.4027 32.2313 68.3916 32.2316 68.3807 32.2297C68.3698 32.2278 68.3594 32.2238 68.3501 32.2179C68.3407 32.212 68.3327 32.2043 68.3263 32.1953C68.3199 32.1863 68.3154 32.1761 68.313 32.1654C68.3106 32.1546 68.3103 32.1435 68.3122 32.1326C68.3141 32.1218 68.3181 32.1114 68.324 32.1021C68.3299 32.0928 68.3376 32.0847 68.3466 32.0784C68.3557 32.072 68.3659 32.0675 68.3767 32.0651C68.6755 31.9941 68.9867 31.9925 69.2863 32.0603C69.5859 32.1281 69.8659 32.2635 70.1048 32.4562C70.9924 33.1481 71.5048 34.5018 71.5148 36.1696C71.5349 39.9934 72.5196 41.4574 72.5196 41.4708C72.526 41.4798 72.5306 41.4899 72.5331 41.5007C72.5355 41.5114 72.5359 41.5226 72.534 41.5335C72.5321 41.5443 72.5281 41.5547 72.5222 41.5641C72.5163 41.5734 72.5086 41.5814 72.4995 41.5878C72.4883 41.5948 72.4758 41.5993 72.4627 41.6011Z" fill="#263238"/>
<path d="M96.5636 21.9242C97.498 23.201 97.4946 25.1898 97.1765 26.2694C95.5019 25.5107 95.7631 23.3314 95.7631 23.3314L96.5636 21.9242Z" fill="#263238"/>
<path d="M101.571 37.7272L102.535 38.7868L103.54 39.8631C104.21 40.575 104.88 41.2702 105.57 41.9387C105.904 42.273 106.239 42.6072 106.598 42.9014C106.956 43.1955 107.268 43.5097 107.619 43.7804C107.971 44.0512 108.289 44.2918 108.601 44.499C108.835 44.656 109.081 44.7946 109.337 44.9135L108.825 44.8333C108.673 44.815 108.519 44.8492 108.39 44.9302C108.39 44.9302 108.47 44.9302 108.584 44.8634C108.895 44.6733 109.183 44.449 109.445 44.1949C110.13 43.5446 110.772 42.8489 111.364 42.1125C112.003 41.3471 112.626 40.5315 113.246 39.706C113.865 38.8804 114.485 38.0347 115.095 37.2025L115.125 37.1657C115.338 36.8846 115.644 36.6871 115.988 36.6076C116.333 36.5281 116.694 36.5717 117.009 36.7307C117.325 36.8898 117.575 37.1542 117.715 37.4779C117.855 37.8017 117.877 38.1643 117.777 38.5027C117.438 39.559 117.046 40.5976 116.602 41.6145C116.163 42.6172 115.677 43.62 115.128 44.6227C114.558 45.6656 113.899 46.6575 113.159 47.5875C112.717 48.1372 112.219 48.6391 111.672 49.0849C111.309 49.3774 110.912 49.6243 110.489 49.8202C109.868 50.1091 109.188 50.2487 108.503 50.228C108.377 50.2233 108.251 50.2065 108.128 50.1779L107.988 50.1478C107.254 49.9723 106.544 49.7086 105.874 49.3623C105.313 49.077 104.771 48.7566 104.25 48.403C103.295 47.7616 102.384 47.057 101.524 46.2939C100.68 45.5619 99.896 44.7965 99.1357 44.0177C98.7606 43.6233 98.3855 43.2289 98.0271 42.8211C97.6688 42.4134 97.3238 42.0156 96.9453 41.551C96.5229 40.9388 96.3426 40.1922 96.4391 39.4552C96.5356 38.7181 96.9021 38.0428 97.468 37.5595C98.0338 37.0762 98.7589 36.819 99.5035 36.8377C100.248 36.8563 100.959 37.1494 101.5 37.6604L101.571 37.7272Z" fill="#E0E0E0"/>
<path d="M116.595 39.0074L119.579 39.1511L118.611 35.1401C118.611 35.1401 115.835 35.344 115.389 36.7679C115.343 36.9267 115.352 37.0966 115.416 37.2492L115.965 38.5628C116.017 38.6889 116.104 38.7976 116.216 38.8763C116.327 38.955 116.459 39.0005 116.595 39.0074V39.0074Z" fill="#FF8B7B"/>
<path d="M122.242 36.7714L121.666 35.4344C121.554 35.1752 121.353 34.964 121.1 34.838C120.847 34.712 120.557 34.6793 120.283 34.7458L118.608 35.157L119.576 39.1679L121.585 38.359C121.735 38.3001 121.871 38.2118 121.985 38.0993C122.1 37.9869 122.19 37.8525 122.251 37.7043C122.313 37.5562 122.343 37.3972 122.342 37.2369C122.34 37.0766 122.306 36.9183 122.242 36.7714V36.7714Z" fill="#FF8B7B"/>
<path d="M94.5138 94.5524C91.3455 80.6444 89.3862 63.8753 89.3862 63.8753L102.378 63.6681C102.378 63.6681 102.197 86.2664 102.224 95.7323C102.257 105.576 102.94 127.238 102.94 127.238H98.9984C98.9984 127.238 93.911 106.719 94.5138 94.5524Z" fill="#263238"/>
<path d="M93.5024 75.3633L91.446 78.4049C92.0589 82.2019 92.7857 86.3834 93.633 90.4812C93.988 84.184 93.9277 76.8674 93.5024 75.3633Z" fill="black"/>
<path d="M108.199 129.167C108.199 129.167 102.77 127.89 102.361 127.031H99.3467L99.3668 130.216H101.229L101.514 129.922L101.986 130.216C103.493 130.216 107.499 130.156 108.446 129.819C108.465 129.698 108.452 129.574 108.409 129.46C108.365 129.346 108.293 129.245 108.199 129.167V129.167Z" fill="#263238"/>
<path d="M82.4299 94.1613C83.9337 80.1731 83.8868 70.8276 85.7188 63.9355L97.5482 63.7583C97.5482 63.7583 92.6215 85.9455 90.334 95.1774C88.0465 104.409 84.1313 127.232 84.1313 127.232H80.4807C80.4807 127.232 79.3319 104.977 82.4299 94.1613Z" fill="#263238"/>
<path d="M84.7811 66.6595C84.5198 68.3308 83.5888 78.2178 82.6242 81.8176C90.5116 85.3105 102.569 83.9367 102.94 81.6705C102.83 77.4724 102.605 66.6595 102.605 66.6595H84.7811Z" fill="#E0E0E0"/>
<path opacity="0.1" d="M85.2198 68.4945C85.7705 69.3852 86.436 70.1999 87.1992 70.9178C87.1992 70.9178 85.4978 70.6136 85.2198 68.4945Z" fill="black"/>
<path opacity="0.1" d="M101.075 70.8243C101.527 70.1513 101.894 69.4249 102.167 68.6617C102.167 68.6617 102.244 70.3697 101.075 70.8243Z" fill="black"/>
<path opacity="0.1" d="M85.2935 69.7546C85.4754 70.4241 85.7445 71.0669 86.0939 71.6665C85.7752 71.4731 85.5261 71.184 85.3822 70.8405C85.2384 70.497 85.2074 70.1168 85.2935 69.7546V69.7546Z" fill="black"/>
<path d="M87.5341 129.167C87.5341 129.167 84.1481 127.89 83.7596 127.031H80.7453L80.685 130.216H83.1534L83.4447 129.922L83.9103 130.216C85.4174 130.216 86.8073 130.156 87.7652 129.819C87.788 129.699 87.7787 129.576 87.7381 129.462C87.6974 129.347 87.6271 129.245 87.5341 129.167V129.167Z" fill="#263238"/>
<path d="M85.2834 36.0293C89.4632 35.5112 95.4315 35.5613 99.4338 36.2499C100.434 36.4308 101.352 36.921 102.057 37.6509C102.763 38.3809 103.221 39.3138 103.366 40.3177C104.206 46.3508 103.483 56.8929 102.947 67.5052C93.8038 70.6271 84.1581 67.4618 84.1581 67.4618C83.8232 65.3226 84.5734 58.3068 85.0758 54.5632C84.3222 50.696 82.7314 46.2672 81.6663 41.1299C81.537 40.5552 81.5301 39.9598 81.6459 39.3823C81.7617 38.8047 81.9977 38.2579 82.3387 37.7771C82.6796 37.2963 83.1179 36.8923 83.6252 36.5912C84.1324 36.2902 84.6974 36.0987 85.2834 36.0293V36.0293Z" fill="#263238"/>
<path opacity="0.1" d="M85.2834 36.0293C89.4632 35.5112 95.4315 35.5613 99.4338 36.2499C100.434 36.4308 101.352 36.921 102.057 37.6509C102.763 38.3809 103.221 39.3138 103.366 40.3177C104.206 46.3508 103.483 56.8929 102.947 67.5052C93.8038 70.6271 84.1581 67.4618 84.1581 67.4618C83.8232 65.3226 84.5734 58.3068 85.0758 54.5632C84.3222 50.696 82.7314 46.2672 81.6663 41.1299C81.537 40.5552 81.5301 39.9598 81.6459 39.3823C81.7617 38.8047 81.9977 38.2579 82.3387 37.7771C82.6796 37.2963 83.1179 36.8923 83.6252 36.5912C84.1324 36.2902 84.6974 36.0987 85.2834 36.0293V36.0293Z" fill="white"/>
<path d="M89.4197 28.0642L94.1756 31.9582C93.5593 33.5926 93.3651 35.3006 96.0511 35.9457C96.721 36.8315 95.7162 38.3857 94.5239 38.9907C91.7039 38.3489 90.0795 37.5936 88.9843 36.0928C89.3293 34.9162 89.8785 30.4808 89.4197 28.0642Z" fill="#FF8B7B"/>
<path opacity="0.2" d="M91.4024 29.6887L94.1755 31.9549C94.0253 32.3328 93.9131 32.7247 93.8406 33.1248C92.7655 33.2016 91.2718 32.122 91.2048 31.1393C91.1804 30.6478 91.2474 30.1559 91.4024 29.6887V29.6887Z" fill="black"/>
<path d="M88.7365 25.4103C89.1719 28.3884 89.2723 30.1532 90.9168 31.5504C93.3919 33.6528 96.9822 31.9414 97.4511 28.8764C97.8697 26.1256 97.0894 21.7169 94.0516 20.7943C93.3777 20.5897 92.6628 20.5594 91.9739 20.7062C91.285 20.853 90.6448 21.1721 90.1134 21.6336C89.582 22.0951 89.1769 22.6838 88.936 23.3444C88.6952 24.005 88.6265 24.7159 88.7365 25.4103Z" fill="#FF8B7B"/>
<path d="M88.7097 26.7841C89.0163 27.1157 89.4124 27.3518 89.8503 27.4638C90.2883 27.5759 90.7494 27.5592 91.178 27.4158C90.4613 26.6905 91.1579 24.0366 90.4412 22.957C91.8278 23.231 97.2267 24.0132 97.7424 22.1447C98.3018 20.1393 96.0679 18.5382 94.8153 18.3878C95.1837 19.2234 95.1502 19.8284 93.777 19.5577C92.4038 19.2869 86.7437 17.9834 87.37 20.6306C85.548 20.6306 85.4241 23.2778 86.7571 24.5446C87.4873 25.2183 88.142 25.9692 88.7097 26.7841V26.7841Z" fill="#263238"/>
<path d="M87.7049 20.5036C86.6131 20.2328 86.9547 19.2301 87.1992 19.1265C86.1777 19.3738 85.8059 20.3765 87.0384 20.8378C88.2709 21.2991 87.7049 20.5036 87.7049 20.5036Z" fill="#263238"/>
<path d="M87.8958 27.2386C87.9974 27.5649 88.1628 27.8679 88.3824 28.1301C88.602 28.3923 88.8715 28.6085 89.1752 28.7661C89.9958 29.1839 90.5919 28.4954 90.5149 27.633C90.4513 26.8542 89.9522 25.7011 89.0546 25.6276C88.8572 25.6177 88.6605 25.6575 88.4824 25.7431C88.3043 25.8288 88.1506 25.9577 88.0353 26.1179C87.92 26.2782 87.8469 26.4648 87.8225 26.6605C87.7981 26.8563 87.8233 27.0551 87.8958 27.2386V27.2386Z" fill="#FF8B7B"/>
<path d="M92.9263 25.5173C92.9464 25.7613 93.0938 25.9485 93.2612 25.9351C93.4287 25.9218 93.5359 25.7078 93.5158 25.4672C93.4957 25.2265 93.3483 25.036 93.1808 25.0494C93.0134 25.0627 92.9062 25.2733 92.9263 25.5173Z" fill="#263238"/>
<path d="M95.8468 25.447C95.8669 25.691 96.0143 25.8782 96.1817 25.8615C96.3492 25.8448 96.453 25.6375 96.4329 25.3935C96.4128 25.1495 96.2655 24.9657 96.098 24.9791C95.9305 24.9924 95.8267 25.203 95.8468 25.447Z" fill="#263238"/>
<path d="M95.254 25.7747C95.6064 26.4931 96.0573 27.1591 96.5937 27.7534C96.1951 28.1946 95.4449 28.0876 95.4449 28.0876L95.254 25.7747Z" fill="#FF5652"/>
<path d="M92.4742 24.7418C92.4512 24.7482 92.4268 24.7482 92.4038 24.7418C92.3859 24.7352 92.3696 24.725 92.3557 24.7119C92.3419 24.6988 92.3309 24.683 92.3234 24.6654C92.3158 24.6479 92.312 24.6291 92.312 24.61C92.312 24.591 92.3159 24.5721 92.3234 24.5546C92.4038 24.34 92.534 24.1475 92.7035 23.993C92.8729 23.8384 93.0767 23.7262 93.2981 23.6655C93.3358 23.658 93.375 23.6657 93.4071 23.6871C93.4391 23.7084 93.4613 23.7415 93.4689 23.7792C93.4764 23.8169 93.4687 23.856 93.4473 23.8879C93.426 23.9199 93.3927 23.9421 93.355 23.9496V23.9496C93.1798 23.9991 93.0188 24.0895 92.8855 24.2133C92.7521 24.3371 92.6502 24.4907 92.588 24.6616C92.5774 24.6835 92.5614 24.7023 92.5415 24.7164C92.5216 24.7304 92.4984 24.7391 92.4742 24.7418V24.7418Z" fill="#263238"/>
<path d="M97.5415 24.354C97.5173 24.3542 97.4936 24.3481 97.4724 24.3364C97.4513 24.3247 97.4336 24.3077 97.4209 24.2872C97.3318 24.1309 97.2066 23.9982 97.0557 23.8999C96.9049 23.8017 96.7327 23.7408 96.5535 23.7223C96.5346 23.7219 96.5159 23.7177 96.4986 23.7101C96.4813 23.7025 96.4657 23.6915 96.4526 23.6779C96.4396 23.6642 96.4293 23.6481 96.4225 23.6305C96.4157 23.6129 96.4124 23.5941 96.4128 23.5752C96.4146 23.5368 96.4313 23.5006 96.4595 23.4744C96.4877 23.4481 96.525 23.4339 96.5635 23.4349C96.7905 23.4555 97.0092 23.53 97.2014 23.6521C97.3937 23.7742 97.5539 23.9404 97.6688 24.1368C97.6878 24.1694 97.6935 24.208 97.6848 24.2447C97.6761 24.2814 97.6536 24.3134 97.6219 24.334C97.5983 24.3499 97.5698 24.357 97.5415 24.354V24.354Z" fill="#263238"/>
<path d="M88.9843 36.0927C88.9843 36.0927 93.8641 43.4929 95.7195 48.7139C97.5482 42.5871 97.7592 37.6838 96.0545 35.9457C95.5052 36.6376 93.2947 37.5735 88.9843 36.0927Z" fill="#E0E0E0"/>
<path d="M87.3197 41.561L86.8475 42.898L86.3786 44.2885C86.0672 45.2144 85.7825 46.1436 85.5179 47.0561C85.3839 47.514 85.2667 47.9685 85.1595 48.4164C85.0523 48.8643 84.9485 49.3089 84.8748 49.7334C84.8011 50.1578 84.7442 50.569 84.7074 50.9366C84.6883 51.2182 84.6883 51.5007 84.7074 51.7823L84.5332 51.2943C84.3926 51.0302 84.2485 50.96 84.2418 50.96C84.2351 50.96 84.2887 51.0269 84.3926 51.1004C84.7043 51.2839 85.0357 51.4319 85.3806 51.5416C86.2712 51.8403 87.1809 52.0793 88.1035 52.2569C89.0848 52.4508 90.0962 52.5912 91.1177 52.7583C92.1392 52.9254 93.1909 53.0424 94.2023 53.1861H94.2492C94.6024 53.2366 94.9264 53.4102 95.1636 53.6762C95.4008 53.9422 95.536 54.2834 95.5452 54.6394C95.5544 54.9953 95.4371 55.3431 95.214 55.621C94.9909 55.8989 94.6764 56.0889 94.3263 56.1576C93.235 56.3643 92.1339 56.516 91.0273 56.6121C89.9221 56.7124 88.8068 56.7625 87.6781 56.7559C86.488 56.7537 85.3003 56.6497 84.128 56.445C83.4396 56.3168 82.7663 56.1186 82.1184 55.8534C81.6868 55.6758 81.2795 55.4445 80.906 55.1648C80.3557 54.7591 79.9083 54.2302 79.5999 53.6206C79.543 53.5071 79.497 53.3885 79.4625 53.2663L79.4257 53.1293C79.2301 52.4016 79.1233 51.6531 79.1075 50.8999C79.0913 50.2718 79.1148 49.6432 79.1779 49.0181C79.2849 47.876 79.4696 46.7426 79.7305 45.6255C79.9683 44.5358 80.2697 43.483 80.5946 42.4435C80.762 41.9254 80.9295 41.4106 81.117 40.8992C81.3046 40.3878 81.4921 39.8965 81.7232 39.345C82.0255 38.6245 82.5967 38.0496 83.316 37.7419C84.0353 37.4341 84.8464 37.4177 85.5776 37.696C86.3089 37.9742 86.9031 38.5255 87.2344 39.2331C87.5658 39.9407 87.6084 40.7491 87.3532 41.4875L87.3197 41.561Z" fill="#E0E0E0"/>
<path d="M94.6779 53.6173L97.6386 53.985L96.0042 57.7653C96.0042 57.7653 93.3014 57.0968 93.1072 55.6128C93.088 55.4487 93.1271 55.2831 93.2177 55.1448L93.9813 53.9449C94.0547 53.8304 94.1591 53.7389 94.2823 53.6809C94.4056 53.623 94.5427 53.6009 94.6779 53.6173V53.6173Z" fill="#FF8B7B"/>
<path d="M99.8591 56.7826L99.062 58.0126C98.9074 58.2491 98.6739 58.4231 98.4028 58.5039C98.1318 58.5847 97.8409 58.5669 97.5817 58.4538L96.0042 57.7653L97.6386 53.985L99.484 55.1248C99.619 55.2079 99.7359 55.3171 99.828 55.446C99.9201 55.5748 99.9856 55.7207 100.021 55.8751C100.055 56.0294 100.059 56.1892 100.031 56.3451C100.004 56.5009 99.9452 56.6497 99.8591 56.7826V56.7826Z" fill="#FF8B7B"/>
<path d="M89.2221 34.943C88.5998 35.0416 88.0295 35.348 87.6044 35.812C88.9306 37.5783 90.821 38.8399 92.9631 39.3885C92.8091 38.8771 93.2713 37.383 93.7803 36.8482C91.9081 36.5708 89.2221 34.943 89.2221 34.943Z" fill="#FAFAFA"/>
<path d="M94.3665 35.1268C95.0014 35.242 95.6051 35.4891 96.1382 35.8521C96.1382 35.8521 98.0137 37.9412 95.8033 39.1211C95.954 38.6097 94.7985 37.2459 93.7636 36.8482C95.6325 36.5708 94.3665 35.1268 94.3665 35.1268Z" fill="#FAFAFA"/>
<path d="M93.9712 38.0381C92.4909 37.2459 90.6589 36.3869 91.168 37.774C91.6771 39.1611 91.0039 39.6424 91.667 40.1137C92.3302 40.585 93.6765 39.2915 94.122 39.111C94.5674 38.9305 93.9712 38.0381 93.9712 38.0381Z" fill="#8A1114"/>
<path d="M95.0195 38.0281C96.1482 37.2694 97.5616 36.4471 97.3104 37.8008C97.0592 39.1545 97.6822 39.6258 97.1898 40.0837C96.6975 40.5416 95.4315 39.2615 95.0296 39.081C94.6277 38.9005 95.0195 38.0281 95.0195 38.0281Z" fill="#8A1114"/>
<path d="M93.7703 37.9311C94.1052 37.7306 94.9224 37.4765 95.3277 38.0214C95.7329 38.5662 95.6023 39.4787 95.043 39.589C94.8432 39.6293 94.6362 39.6148 94.4439 39.5471C94.2517 39.4795 94.0814 39.3611 93.9511 39.2046C94.0754 39.0048 94.1253 38.7679 94.0923 38.5351C94.0592 38.3023 93.9452 38.0886 93.7703 37.9311V37.9311Z" fill="#8A1114"/>
<path d="M84.3356 127.339L80.2731 127.452L80.0587 125.156L84.7777 125.437L84.3356 127.339Z" fill="black"/>
<path d="M103.084 127.332L98.697 127.452L98.2113 125.463L103.111 124.989L103.084 127.332Z" fill="black"/>
<path d="M93.5224 52.8385C91.4708 52.2332 89.3555 51.8686 87.2193 51.7522C86.7638 51.7789 86.5896 62.0503 86.6265 66.2518C86.6265 66.82 93.1775 66.7063 94.8521 66.449C94.9459 65.2758 94.966 56.7124 95.4013 54.0351C95.4346 53.8256 95.3965 53.6111 95.2933 53.4257C95.1901 53.2404 95.0277 53.0948 94.832 53.0123C94.4171 52.8454 93.9667 52.7856 93.5224 52.8385V52.8385Z" fill="white"/>
<path d="M127.815 36.397H109.22V36.9251H127.815V36.397Z" fill="#8A1114"/>
<path d="M127.426 36.925H109.609L110.292 37.2961H126.746L127.426 36.925Z" fill="#8A1114"/>
<path opacity="0.2" d="M127.426 36.925H109.609L110.292 37.2961H126.746L127.426 36.925Z" fill="black"/>
<path d="M119.284 28.9367C119.285 29.0882 119.241 29.2365 119.157 29.3628C119.073 29.4891 118.953 29.5877 118.813 29.6462C118.673 29.7046 118.519 29.7203 118.37 29.6911C118.221 29.662 118.084 29.5893 117.976 29.4824C117.869 29.3755 117.795 29.2391 117.766 29.0906C117.736 28.942 117.751 28.7879 117.809 28.6479C117.867 28.5078 117.965 28.3881 118.091 28.3038C118.217 28.2195 118.366 28.1746 118.518 28.1746C118.618 28.1741 118.718 28.1935 118.811 28.2316C118.904 28.2697 118.988 28.3258 119.06 28.3966C119.131 28.4674 119.187 28.5516 119.226 28.6442C119.265 28.7369 119.284 28.8363 119.284 28.9367Z" fill="#8A1114"/>
<path d="M126.556 33.9469C126.039 32.3509 125.057 30.945 123.736 29.9092L123.943 29.6451C125.319 30.7229 126.34 32.1858 126.877 33.8466L126.556 33.9469Z" fill="#8A1114"/>
<path d="M122.573 29.1404C122.198 28.9336 121.807 28.7559 121.405 28.609L121.518 28.2948C121.937 28.4521 122.344 28.6409 122.734 28.8597L122.573 29.1404Z" fill="#8A1114"/>
<path d="M118.518 28.9366C116.5 28.9366 114.566 29.7364 113.139 31.1599C111.713 32.5835 110.911 34.5142 110.911 36.5274H126.124C126.124 34.5142 125.322 32.5835 123.896 31.1599C122.469 29.7364 120.535 28.9366 118.518 28.9366V28.9366Z" fill="#8A1114"/>
<path opacity="0.3" d="M111.96 35.8488H113.926C113.994 35.8476 114.059 35.823 114.111 35.7791C114.163 35.7353 114.198 35.6748 114.21 35.6081C114.606 33.5291 115.848 31.7175 117.824 30.1432C117.869 30.1072 117.901 30.0577 117.915 30.0021C117.929 29.9464 117.925 29.8877 117.902 29.8348C117.88 29.782 117.841 29.7378 117.791 29.709C117.742 29.6802 117.684 29.6684 117.627 29.6753C116.132 29.8721 114.743 30.549 113.668 31.6036C112.593 32.6583 111.891 34.0334 111.668 35.5212C111.663 35.5624 111.667 35.6042 111.679 35.6438C111.691 35.6835 111.712 35.72 111.74 35.751C111.767 35.7821 111.801 35.8068 111.839 35.8237C111.877 35.8406 111.918 35.8491 111.96 35.8488Z" fill="white"/>
<path d="M94.3196 28.9567C94.4762 28.9635 94.6332 28.9557 94.7885 28.9333C94.8093 28.9292 94.8277 28.9171 94.8396 28.8996C94.8515 28.8821 94.856 28.8605 94.8521 28.8397C94.8466 28.8179 94.8334 28.7988 94.8149 28.7859C94.7965 28.7731 94.774 28.7672 94.7516 28.7695C94.4018 28.8214 94.0447 28.7937 93.7071 28.6883C93.3696 28.583 93.0603 28.4028 92.8024 28.1612C92.7949 28.1532 92.7858 28.1468 92.7757 28.1425C92.7656 28.1381 92.7548 28.1359 92.7438 28.1359C92.7328 28.1359 92.7219 28.1381 92.7118 28.1425C92.7018 28.1468 92.6927 28.1532 92.6852 28.1612C92.6706 28.1772 92.6625 28.198 92.6625 28.2197C92.6625 28.2413 92.6706 28.2622 92.6852 28.2782C93.1282 28.6966 93.7098 28.9381 94.3196 28.9567V28.9567Z" fill="#263238"/>
</svg>
